<svg width="50" height="50" viewBox="0 0 50 50" fill="none" xmlns="http://www.w3.org/2000/svg">
<g clip-path="url(#clip0_2_2)">
<path d="M25 6.61612e-06C24.8784 6.61612e-06 24.7599 0.0124978 24.6447 0.0343386C24.6382 0.0355659 24.6316 0.0360972 24.6252 0.0373904C24.5687 0.0487136 24.5133 0.0631296 24.4587 0.0793523C24.4541 0.0807185 24.4493 0.0815756 24.4448 0.0829762C24.2675 0.137113 24.1014 0.216589 23.9504 0.317009C23.9473 0.319031 23.9441 0.320692 23.941 0.322731C23.9092 0.344148 23.8793 0.367953 23.8489 0.391205C23.78 0.443731 23.7131 0.499203 23.6513 0.561342L16.3095 7.96642C15.5709 8.71134 15.5766 9.91339 16.321 10.652C17.0659 11.39 18.2683 11.3849 19.0063 10.6405L23.1012 6.51054V23.1014H6.51139L10.6418 19.007C11.3861 18.2684 11.3916 17.0666 10.653 16.3217C9.91444 15.5767 8.712 15.5717 7.96766 16.3102L0.562581 23.652C0.562291 23.6523 0.562107 23.6527 0.561818 23.653C0.342453 23.8708 0.176066 24.1417 0.0834585 24.4449C0.0829988 24.4464 0.0827701 24.448 0.0823141 24.4495C0.0648932 24.5071 0.0498336 24.5656 0.0378727 24.6254C0.0365789 24.6318 0.0360487 24.6384 0.0348209 24.6448C0.0244156 24.6997 0.0154039 24.7551 0.00983457 24.8115C0.00371436 24.8736 0.000488281 24.9365 0.000488281 25.0001C0.000488281 25.0638 0.00371436 25.1267 0.00983428 25.1888C0.0154031 25.2452 0.0244153 25.3006 0.0348206 25.3555C0.0360484 25.3619 0.0365787 25.3685 0.0378724 25.3749C0.0491956 25.4315 0.0636116 25.4868 0.0798343 25.5414C0.0812758 25.5463 0.0821692 25.5513 0.0836489 25.5561C0.138828 25.7365 0.219977 25.9056 0.323024 26.0587C0.357703 26.1102 0.394599 26.1601 0.43403 26.2079C0.434289 26.2082 0.434534 26.2086 0.434793 26.2088C0.441351 26.2168 0.449079 26.2239 0.455773 26.2317C0.48887 26.2705 0.522702 26.3087 0.558771 26.3446C0.560115 26.346 0.561238 26.3475 0.562586 26.3488L7.96747 33.6906C8.33769 34.0571 8.82074 34.2407 9.30429 34.2407C9.79286 34.2407 10.2815 34.0533 10.6524 33.6786C11.391 32.9337 11.3853 31.7318 10.641 30.9933L6.5112 26.8989H23.102V43.4897L19.0077 39.36C18.2697 38.6144 17.0673 38.6112 16.3223 39.3479C15.578 40.0865 15.5723 41.2886 16.3109 42.0335L23.6527 49.4384C23.653 49.4387 23.6534 49.4389 23.6537 49.4392C23.7851 49.5715 23.9357 49.6848 24.1013 49.7741C24.1075 49.7774 24.1141 49.78 24.1204 49.7832C24.1692 49.8089 24.2189 49.833 24.2701 49.8544C24.2729 49.8556 24.2759 49.8563 24.2787 49.8574C24.3326 49.8796 24.3875 49.8997 24.4437 49.9169C24.4564 49.9209 24.4696 49.9234 24.4824 49.927C24.5297 49.9405 24.5773 49.9533 24.626 49.9631C24.6325 49.9644 24.6391 49.9649 24.6455 49.9661C24.7607 49.988 24.8792 50.0005 25.0008 50.0005C25.1785 50.0005 25.3496 49.9742 25.5127 49.9286C25.5279 49.9243 25.5435 49.9214 25.5585 49.9167C25.666 49.8837 25.7689 49.8405 25.8673 49.7899C25.8785 49.7842 25.8902 49.7795 25.9013 49.7735C25.9376 49.7539 25.9724 49.7317 26.0073 49.7098C26.0255 49.6984 26.0446 49.6883 26.0624 49.6762C26.0726 49.6693 26.0819 49.6612 26.092 49.6541C26.1834 49.59 26.2704 49.5188 26.3502 49.4384L33.692 42.0335C34.4299 41.2886 34.4248 40.0865 33.6798 39.3479C32.9342 38.61 31.7325 38.615 30.9945 39.36L26.8996 43.4907V26.8989H43.4904L39.3602 30.9933C38.6153 31.7318 38.6102 32.9337 39.3482 33.6786C39.7197 34.0533 40.2083 34.2407 40.6969 34.2407C41.1798 34.2407 41.6636 34.057 42.0337 33.6906L49.4386 26.3488C49.44 26.3475 49.4413 26.346 49.4426 26.3446C49.4672 26.3202 49.4896 26.2936 49.5128 26.2678C49.5308 26.2477 49.5501 26.2286 49.5672 26.2079C49.6066 26.1601 49.6437 26.1103 49.6784 26.0587C49.6808 26.0551 49.6826 26.0511 49.6851 26.0475C49.717 25.9993 49.7474 25.9498 49.7749 25.8987C49.7781 25.8928 49.7804 25.8865 49.7835 25.8806C49.8092 25.8316 49.8334 25.7818 49.8548 25.7305C49.856 25.7275 49.8568 25.7245 49.8581 25.7215C49.88 25.6681 49.8999 25.6136 49.917 25.5579C49.9216 25.5428 49.9246 25.5273 49.9288 25.5121C49.9415 25.4666 49.9542 25.4211 49.9635 25.3744C49.9648 25.3682 49.9652 25.3617 49.9664 25.3555C49.9882 25.2402 50.0007 25.1218 50.0007 25.0002C50.0007 24.872 49.9877 24.747 49.9635 24.6259C49.9635 24.6257 49.9633 24.6255 49.9633 24.6254C49.954 24.5788 49.9415 24.5335 49.9288 24.4882C49.9246 24.473 49.9216 24.4575 49.917 24.4424C49.8989 24.3836 49.8783 24.326 49.8548 24.2698C49.8548 24.2697 49.8547 24.2695 49.8546 24.2694C49.8306 24.212 49.8042 24.156 49.7749 24.1016C49.7747 24.1013 49.7745 24.101 49.7743 24.1006C49.7448 24.046 49.7129 23.9928 49.6784 23.9415C49.6783 23.9414 49.6783 23.9412 49.6782 23.9411C49.6435 23.8897 49.6065 23.8401 49.5672 23.7924C49.5501 23.7716 49.5308 23.7525 49.5128 23.7325C49.4896 23.7067 49.4672 23.6801 49.4426 23.6556C49.4412 23.6542 49.44 23.6528 49.4386 23.6514L42.0337 16.3096C41.2881 15.571 40.0862 15.5767 39.3482 16.3211C38.6102 17.066 38.6153 18.2678 39.3602 19.0064L43.4906 23.1013H26.8997V6.51052L30.9941 10.6403C31.3656 11.015 31.8542 11.2024 32.3428 11.2024C32.8257 11.2024 33.3092 11.0194 33.6795 10.6523C34.4244 9.91375 34.4295 8.7117 33.6915 7.96678L26.3497 0.561899C26.3484 0.560551 26.3469 0.559428 26.3455 0.558085C26.3024 0.514817 26.2572 0.473454 26.2101 0.434491C26.2096 0.434118 26.2092 0.433719 26.2088 0.433346C25.8806 0.162497 25.4599 -0.000198364 25.0011 -0.000198364L25 6.61612e-06Z" fill="black"/>
</g>
<defs>
<clipPath id="clip0_2_2">
<rect width="50" height="50" fill="white"/>
</clipPath>
</defs>
</svg>
